<svg width="136" height="39" viewBox="0 0 136 39">
  <path fill="#448EE1" fill-rule="evenodd" d="M7.44773546,14.6578209 L7.44773546,31 L3.07720806,31 L3.07720806,14.6578209 L0,14.6578209 L0,11 L3.07720806,11 L3.07720806,7.28449281 C3.07720806,2.39855251 5.75304116,0 9.90058247,0 C11.4614851,0 12.66561,0.310923474 13.7805405,0.97718806 L13.7805405,5.01919322 C12.7102072,4.30851099 11.7290684,3.90875224 10.3911519,3.90875224 C8.5180687,3.90875224 7.44773546,4.84152266 7.44773546,7.24007517 L7.44773546,11 L14,11 L14,14.6578215 L7.44773546,14.6578209 Z M32.8131513,11 L32.8131513,30.2328377 C30.494096,30.810267 27.4614851,31.1211905 25.1424298,31.1211905 C19.478583,31.1211905 16,29.3000673 16,23.7922801 L16,11 L20.3705274,11 L20.3705274,23.4813566 C20.3705274,26.4129208 22.1544161,27.4789441 25.0532353,27.4789441 C26.0343741,27.4789441 27.2830962,27.3901088 28.4426239,27.2124383 L28.4426239,11 L32.8131513,11 Z M41,0 L41,31 L37,31 L37,0 L41,0 Z M49,0 L49,31 L45,31 L45,0 L49,0 Z M52.8556946,29.4933124 L52.8556946,25.3180543 C54.6841806,26.6950011 56.8694443,27.5389362 58.8763191,27.5389362 C60.8385967,27.5389362 62.131916,26.8726717 62.131916,25.3180543 C62.131916,23.7190193 60.9723883,23.14159 58.4303469,22.4753254 C54.3274028,21.542555 52.5881113,19.8991023 52.5881113,16.4789441 C52.5881113,12.4813566 55.6207221,10.5269805 59.6344718,10.5269805 C61.8643327,10.5269805 63.6482214,11.0155745 65.2983185,12.0371802 L65.2983185,16.0791854 C63.559027,14.8354915 61.8643327,14.0803916 59.7682635,14.0803916 C57.8505831,14.0803916 56.824847,15.013162 56.824847,16.3012736 C56.824847,17.5893851 57.6721942,18.2556497 59.9466523,18.8774966 C64.4509714,19.8546847 66.413249,21.542555 66.413249,25.0959661 C66.413249,29.2268065 63.2468465,31.0923474 58.9655135,31.0923474 C56.6464582,31.0923474 54.3274028,30.4705004 52.8556946,29.4933124 Z M66.9694342,14.6578209 L66.9694342,11 L69.6391144,11 L69.6553532,5.99884527 L74.0258806,5.99884527 L74.0096418,11 L79.6288913,11 L79.6288913,14.6578209 L74.0096418,14.6578209 L74.0096418,24.0299428 C74.0096418,26.3840776 75.0353779,27.1835951 76.7300722,27.1835951 C78.0233915,27.1835951 79.1383219,26.7838364 80.3424468,26.0731542 L80.3424468,30.026324 C79.0491275,30.6925886 77.4436276,31.0923474 75.5705445,31.0923474 C72.3595448,31.0923474 69.6391144,29.4933124 69.6391144,25.0071308 L69.6391144,14.6578209 L66.9694342,14.6578209 Z M91.2390338,31.0923474 C85.352201,31.0923474 81.0708681,26.9170893 81.0708681,20.8318727 C81.0708681,14.7022385 85.352201,10.5269805 91.2390338,10.5269805 C97.1704639,10.5269805 101.451797,14.7022385 101.451797,20.8318727 C101.451797,26.9170893 97.1704639,31.0923474 91.2390338,31.0923474 Z M96.992075,20.8318727 C96.992075,16.8342852 94.6284224,14.3024798 91.2390338,14.3024798 C87.9388397,14.3024798 85.5305899,16.8342852 85.5305899,20.8318727 C85.5305899,24.7850426 87.9388397,27.3168481 91.2390338,27.3168481 C94.6284224,27.3168481 96.992075,24.7850426 96.992075,20.8318727 Z M108.602218,15.4129208 L108.602218,31 L104.187093,31 L104.187093,12.6146095 C106.327759,11.4153333 109.092787,10.6602334 111.902412,10.6602334 C112.123696,10.6602334 112.397355,10.6708391 112.397355,10.6708391 L114.00108,14.9945884 C114.00108,14.9945884 112.616543,14.7910738 111.902412,14.7910738 C110.564495,14.7910738 109.494162,15.0575797 108.602218,15.4129208 Z M119.543402,11 L125.162651,26.4729129 L130.692706,11 L135.241623,11 L124.53829,39 L120.21236,39 L122.977388,31.5365238 L114.816097,11 L119.543402,11 Z"/>
</svg>
