<svg width="600" height="78" viewBox="0 0 600 78">
  <g fill="none" fill-rule="evenodd" transform="translate(-12)">
    <path stroke="#448EE1" stroke-linecap="round" stroke-width="2" d="M292.710737,50 C293.207519,52.6288222 293.367666,56.6398294 290.614577,62.8931045 C287.861488,69.1463795 273.627744,82.0839804 247.258968,74.8750118 C115.322544,38.8048667 0.163526116,63.5 0.163526116,63.5"/>
    <path stroke="#448EE1" stroke-linecap="round" stroke-width="2" d="M624.965432,50 C628.643536,62.526412 621.071426,83.3345248 586.905562,75.1412509 C536.179363,62.9766637 416.057373,39.6428155 332,69.9203947" transform="matrix(-1 0 0 1 957.81 0)"/>
    <g transform="translate(273)">
      <path fill="#448EE1" d="M59.4592172,59 L58.4270014,54 L69.9920254,54 C72.2074985,54 74,52.2114659 74,50.0051972 L74,20.9948028 C74,18.7845869 72.2055686,17 69.9920254,17 L9.00797464,17 C6.79250151,17 5,18.7885341 5,20.9948028 L5,50.0051972 C5,52.2154131 6.79443137,54 9.00797464,54 L19.5736214,54 L18.5409708,59 L3.99895551,59 C1.79039337,59 0,57.2020322 0,54.9910754 L0,12 L79,12 L79,54.9910754 C79,57.2051433 77.201543,59 75.0010445,59 L59.4592172,59 Z M79,10 L79,4.00892456 C79,1.79796785 77.2096066,0 75.0010445,0 L3.99895551,0 C1.79845703,0 0,1.79485666 0,4.00892456 L0,10 L79,10 Z M54.9029705,59 L24.0968673,59 C23.4036073,59 22.8836624,58.3833797 23.0225692,57.7241273 L24.143382,52.3975904 C24.3090508,51.5851097 25.0443651,51 25.8981963,51 L39.47475,51 L53.0513037,51 C53.9051349,51 54.6404493,51.5851097 54.8067552,52.3975904 L55.975357,57.7148594 C56.121273,58.3765833 55.6006908,59 54.9029705,59 Z M12,32.5 C12,28.9101491 14.9182064,26 18.4980452,26 L60.5019548,26 C64.0907261,26 67,28.9174538 67,32.5 C67,36.0898509 64.0817936,39 60.5019548,39 L18.4980452,39 C14.9092739,39 12,36.0825462 12,32.5 Z M60.5,37 C62.9852814,37 65,34.9852814 65,32.5 C65,30.0147186 62.9852814,28 60.5,28 C58.0147186,28 56,30.0147186 56,32.5 C56,34.9852814 58.0147186,37 60.5,37 Z M18.5,37 C20.9852814,37 23,34.9852814 23,32.5 C23,30.0147186 20.9852814,28 18.5,28 C16.0147186,28 14,30.0147186 14,32.5 C14,34.9852814 16.0147186,37 18.5,37 Z"/>
      <circle cx="6.5" cy="5.5" r="2.5" fill="#E96868"/>
      <circle cx="13.5" cy="5.5" r="2.5" fill="#F6BE00"/>
      <circle cx="20.5" cy="5.5" r="2.5" fill="#65AB83"/>
    </g>
  </g>
</svg>
