<?xml version="1.0" encoding="UTF-8"?>
<svg width="97px" height="134px" viewBox="0 0 97 134" version="1.1" xmlns="http://www.w3.org/2000/svg" xmlns:xlink="http://www.w3.org/1999/xlink">
    <!-- Generator: Sketch 42 (36781) - http://www.bohemiancoding.com/sketch -->
    <title>Group</title>
    <desc>Created with Sketch.</desc>
    <defs></defs>
    <g id="Page-1" stroke="none" stroke-width="1" fill="none" fill-rule="evenodd">
        <g id="Group" transform="translate(1.000000, 0.000000)">
            <g id="Group-4" transform="translate(1.037264, 0.000000)">
                <path d="M59.6485773,59 L58.6115693,54 L69.9920254,54 C72.2074985,54 74,52.2114659 74,50.0051972 L74,20.9948028 C74,18.7845869 72.2055686,17 69.9920254,17 L9.00797464,17 C6.79250151,17 5,18.7885341 5,20.9948028 L5,50.0051972 C5,52.2154131 6.79443137,54 9.00797464,54 L19.7543546,54 L18.7169098,59 L3.99895551,59 C1.79039337,59 0,57.2020322 0,54.9910754 L0,12 L79,12 L79,54.9910754 C79,57.2051433 77.201543,59 75.0010445,59 L59.6485773,59 Z M79,10 L79,4.00892456 C79,1.79796785 77.2096066,0 75.0010445,0 L3.99895551,0 C1.79845703,0 0,1.79485666 0,4.00892456 L0,10 L79,10 Z M55.0437888,59.2396364 L24.1017088,59.2396364 C23.4053888,59.2396364 22.8831488,58.6045455 23.0226688,57.9255455 L24.1484288,52.4394545 C24.3148288,51.6026364 25.0533888,51 25.9109888,51 L39.5474688,51 L53.1839488,51 C54.0415488,51 54.7801088,51.6026364 54.9471488,52.4394545 L56.1209088,57.916 C56.2674688,58.5975455 55.7445888,59.2396364 55.0437888,59.2396364 Z M12,32.5 C12,28.9101491 14.9182064,26 18.4980452,26 L60.5019548,26 C64.0907261,26 67,28.9174538 67,32.5 C67,36.0898509 64.0817936,39 60.5019548,39 L18.4980452,39 C14.9092739,39 12,36.0825462 12,32.5 Z M60.5,37 C62.9852814,37 65,34.9852814 65,32.5 C65,30.0147186 62.9852814,28 60.5,28 C58.0147186,28 56,30.0147186 56,32.5 C56,34.9852814 58.0147186,37 60.5,37 Z M18.5,37 C20.9852814,37 23,34.9852814 23,32.5 C23,30.0147186 20.9852814,28 18.5,28 C16.0147186,28 14,30.0147186 14,32.5 C14,34.9852814 16.0147186,37 18.5,37 Z" id="Combined-Shape" fill="#448EE1"></path>
                <circle id="Oval" fill="#E96868" cx="6.5" cy="5.5" r="2.5"></circle>
                <circle id="Oval-Copy-3" fill="#F6BE00" cx="13.5" cy="5.5" r="2.5"></circle>
                <circle id="Oval-Copy-4" fill="#65AB83" cx="20.5" cy="5.5" r="2.5"></circle>
            </g>
            <path d="M19.4037342,49.9321297 C19.7986903,52.0841235 20.3799605,53.5360403 20.3632375,56.7274949 C20.3465144,59.9189494 20.6833812,75.9528871 13.9992646,87.5447531 C4.52166491,103.981191 5.28791472,118.700205 16.0448102,124.850118 C21.4146989,127.920181 40.0015137,134.429098 54.8352581,131.992932 C69.6690025,129.556765 80.8165307,118.131313 68.6410311,103.142868 C44.3287215,73.2136058 20.3151096,81.1842247 24.251649,109.319334 C28.1881884,137.454444 92.8354485,124.973492 72.151745,86.1488128 C51.4680414,47.3241338 -2.73360382,74.3049318 0.107576785,105.664063 C2.94875739,137.023193 39.1075493,120.315675 52.6505455,106.640625 C66.1935418,92.9655747 83.4324145,51.3932697 92.8658363,75.9937076 C98.99324,91.9727252 80.9060733,94.6922204 68.6410311,89.2670025 C56.375989,83.8417847 60.0261999,53.7251313 61.4218683,50.1009877" id="Path-3" stroke="#448EE1" stroke-width="2" stroke-linecap="round"></path>
        </g>
    </g>
</svg>